<svg version="1.0" xmlns="http://www.w3.org/2000/svg"
 width="5000.000000pt" height="5000.000000pt" viewBox="0 0 5000.000000 5000.000000"
 preserveAspectRatio="xMidYMid meet">

<g transform="translate(0.000000,5000.000000) scale(0.100000,-0.100000)"
fill="#000000" stroke="none">
<path d="M31923 41743 c3 -5 123 -201 267 -438 712 -1167 890 -1460 1429
-2345 481 -789 590 -962 628 -995 26 -22 58 -50 72 -61 l25 -21 -26 -14 -26
-14 204 -334 c113 -184 201 -338 197 -342 -7 -7 -500 -300 -863 -514 -204
-120 -632 -373 -1565 -925 -655 -388 -838 -496 -1390 -822 -181 -107 -492
-291 -690 -408 -198 -117 -448 -265 -555 -328 -107 -63 -292 -172 -410 -242
-534 -316 -740 -438 -1260 -745 -305 -181 -787 -466 -1070 -633 -283 -168
-551 -326 -595 -352 -44 -26 -143 -84 -220 -130 -365 -216 -832 -491 -877
-516 -3 -2 -857 874 -1898 1946 -1040 1073 -1894 1949 -1898 1947 -4 -3 -81
-44 -172 -92 -91 -48 -205 -109 -255 -135 -49 -26 -216 -114 -370 -195 -154
-81 -325 -171 -380 -200 -55 -29 -307 -162 -560 -295 -253 -133 -496 -262
-540 -285 -122 -65 -517 -273 -1830 -965 -660 -348 -1236 -652 -1280 -675 -44
-24 -291 -154 -550 -290 -258 -136 -501 -264 -540 -285 -38 -20 -124 -65 -190
-100 -66 -35 -237 -125 -380 -200 -215 -114 -889 -469 -2465 -1300 -96 -51
-220 -116 -275 -145 -55 -29 -307 -162 -560 -295 -253 -133 -491 -259 -530
-280 -38 -20 -122 -64 -185 -98 -167 -87 -1549 -816 -1655 -872 -49 -26 -259
-137 -465 -245 -206 -109 -411 -217 -455 -240 -96 -51 -526 -278 -910 -480
-154 -81 -320 -169 -370 -195 -49 -26 -382 -202 -740 -390 -621 -327 -736
-388 -743 -395 -3 -2 487 -936 723 -1380 24 -44 154 -291 290 -550 136 -258
267 -506 290 -550 39 -73 252 -478 1002 -1899 144 -275 267 -504 272 -509 8
-8 128 50 366 178 33 18 152 81 265 140 113 59 279 147 370 195 91 48 296 156
455 240 160 84 331 174 380 200 50 26 254 134 455 240 382 201 450 237 720
380 91 48 257 136 370 195 113 59 241 127 285 150 44 24 249 132 455 240 419
221 494 260 730 385 91 48 219 116 285 150 66 35 143 75 170 90 28 15 194 103
370 195 176 92 343 180 370 195 28 15 102 54 165 88 128 66 799 420 925 487
44 23 130 68 190 100 61 32 146 77 190 100 44 24 334 177 645 340 311 164 601
317 645 340 44 24 249 131 455 240 206 109 402 212 435 230 33 18 119 63 190
100 72 37 202 106 290 153 197 104 309 163 445 235 58 30 350 184 650 342 300
158 673 355 830 438 298 157 394 207 549 290 l93 50 63 -64 c34 -35 918 -947
1964 -2026 1046 -1080 1904 -1963 1907 -1963 3 0 42 22 87 48 527 312 1260
746 1327 785 47 28 355 210 685 405 330 195 638 378 685 405 47 28 256 151
465 275 209 124 418 248 465 275 47 27 193 114 325 192 295 175 1322 782 1615
955 118 70 820 485 1560 922 740 437 1617 956 1950 1153 333 197 763 451 955
565 193 114 440 260 550 325 110 65 322 190 470 278 149 88 308 183 355 210
165 97 1457 861 1640 970 102 60 188 111 191 113 6 3 73 -103 434 -696 109
-179 228 -374 265 -435 37 -60 269 -441 515 -845 247 -404 648 -1063 893
-1465 245 -401 495 -812 556 -912 61 -100 114 -179 117 -175 4 4 134 342 289
752 155 410 387 1022 515 1360 128 338 265 698 303 800 39 102 240 633 447
1180 481 1270 892 2356 960 2535 76 202 707 1869 835 2205 713 1879 1283 3388
1284 3400 1 11 -15 16 -59 22 -68 7 -395 47 -690 83 -110 13 -366 44 -570 69
-538 65 -1322 161 -1690 206 -176 21 -491 60 -700 85 -784 95 -1031 125 -1070
130 -51 6 -1136 138 -1355 165 -325 39 -668 81 -865 105 -450 55 -634 77
-1150 140 -643 78 -1008 122 -1440 175 -176 22 -376 46 -445 54 -156 19 -623
75 -670 81 -195 24 -345 43 -775 95 -275 33 -538 65 -585 71 -47 5 -101 12
-120 14 -19 3 -147 18 -285 35 -137 17 -321 39 -408 50 -174 22 -200 24 -194
13z"/>
<path d="M37010 29816 c-85 -51 -245 -146 -355 -211 -110 -65 -231 -137 -270
-160 -38 -23 -146 -87 -240 -142 -413 -244 -2994 -1769 -3655 -2161 -135 -80
-284 -168 -332 -196 -48 -28 -186 -109 -307 -181 l-221 -130 0 -9192 0 -9193
2770 0 2770 0 0 10830 c0 5957 -1 10830 -2 10829 -2 0 -73 -42 -158 -93z"/>
<path d="M19810 26121 c-58 -31 -168 -90 -245 -130 -330 -174 -676 -357 -760
-401 -180 -96 -1774 -936 -2040 -1076 -77 -40 -180 -95 -230 -121 l-90 -48 -3
-8047 -2 -8048 2770 0 2770 0 0 7913 0 7913 -1020 1052 c-561 579 -1026 1051
-1033 1051 -6 -1 -59 -27 -117 -58z"/>
<path d="M29435 25337 c-77 -46 -329 -195 -560 -332 -575 -340 -837 -494 -990
-585 -71 -43 -229 -136 -350 -207 -121 -72 -382 -226 -580 -343 -198 -117
-407 -241 -465 -275 -58 -34 -415 -245 -795 -470 -379 -224 -748 -443 -820
-485 -71 -42 -231 -136 -355 -210 -124 -73 -282 -167 -352 -208 l-128 -74 0
-6949 0 -6949 2770 0 2770 0 0 8585 c0 4722 -1 8585 -2 8585 -2 0 -66 -38
-143 -83z"/>
<path d="M14105 23112 c-154 -81 -336 -178 -405 -214 -69 -36 -242 -128 -385
-203 -143 -76 -388 -205 -545 -287 -157 -83 -325 -172 -375 -198 -49 -26 -421
-222 -825 -435 -404 -213 -780 -411 -835 -440 -409 -216 -640 -338 -760 -401
-77 -40 -360 -190 -630 -332 l-490 -258 -3 -6047 -2 -6047 2770 0 2770 0 0
7505 c0 4128 -1 7505 -2 7505 -2 0 -129 -67 -283 -148z"/>
</g>
</svg>
